<svg xmlns="http://www.w3.org/2000/svg" xmlns:xlink="http://www.w3.org/1999/xlink" width="50" height="70" viewBox="0 0 50 70">
  <defs>
    <clipPath id="clip-path">
      <rect id="Rectangle_133" data-name="Rectangle 133" width="50" height="70" transform="translate(1073 545)" fill="#fff" stroke="#707070" stroke-width="1"/>
    </clipPath>
  </defs>
  <g id="Mask_Group_24" data-name="Mask Group 24" transform="translate(-1073 -545)" clip-path="url(#clip-path)">
    <g id="_1719523" data-name="1719523" transform="translate(1073 547.367)">
      <path id="Path_190" data-name="Path 190" d="M34.641,38.521H15.358V63.762a1.5,1.5,0,0,0,2.044,1.4l7.058-2.719a1.5,1.5,0,0,1,1.081,0L32.6,65.164a1.5,1.5,0,0,0,2.044-1.4Zm0,0" fill="#ea4444"/>
      <path id="Path_191" data-name="Path 191" d="M34.642,38.52V63.762a1.5,1.5,0,0,1-2.044,1.4l-1.511-.582V38.52Zm0,0" fill="#d93131"/>
      <path id="Path_192" data-name="Path 192" d="M50,23.94c0,2.554-2.977,4.607-3.726,6.912-.776,2.389.4,5.8-1.048,7.783-1.462,2.009-5.074,1.936-7.082,3.4-1.989,1.447-3.028,4.913-5.417,5.688-2.3.748-5.173-1.42-7.727-1.42s-5.422,2.169-7.727,1.42c-2.389-.776-3.428-4.241-5.417-5.689-2.009-1.461-5.621-1.389-7.083-3.4-1.447-1.989-.271-5.394-1.047-7.783C2.978,28.547,0,26.494,0,23.939s2.978-4.607,3.726-6.912c.776-2.389-.4-5.795,1.048-7.783,1.461-2.008,5.074-1.936,7.082-3.4C13.844,4.4,14.883.933,17.273.157c2.305-.749,5.173,1.42,7.727,1.42S30.422-.592,32.727.157c2.389.775,3.429,4.241,5.417,5.688,2.008,1.462,5.62,1.389,7.082,3.4,1.447,1.988.272,5.394,1.048,7.783C47.022,19.332,50,21.385,50,23.94Zm0,0" fill="#f7de92"/>
      <path id="Path_193" data-name="Path 193" d="M46.273,30.853c-.776,2.389.4,5.8-1.047,7.783-1.462,2.008-5.074,1.937-7.082,3.4-1.989,1.447-3.027,4.911-5.416,5.688-1.262.411-2.69-.053-4.145-.558.588.2,2.178-2.555,2.45-2.95,1.492-2.163,3.9-3.345,5.938-4.9a9.5,9.5,0,0,0,3.848-5.944c.325-1.461.39-2.875,1.286-4.146,1.183-1.678,2.864-3.256,2.864-5.41,0-2.556-2.981-4.612-3.73-6.92-.666-2.05-.121-4.373-1.245-6.29a11.235,11.235,0,0,0-4.12-3.63A14.949,14.949,0,0,1,32.347,4.4C31.98,4,29.329.459,28.821.633A6.365,6.365,0,0,1,32.728.157c2.389.776,3.427,4.24,5.417,5.688,2.008,1.462,5.62,1.39,7.082,3.4,1.447,1.988.271,5.394,1.047,7.783C47.021,19.332,50,21.386,50,23.94s-2.979,4.606-3.727,6.912Zm0,0" fill="#f5d573"/>
      <path id="Path_194" data-name="Path 194" d="M40.646,23.94A15.646,15.646,0,1,1,25,8.294,15.646,15.646,0,0,1,40.646,23.94Zm0,0" fill="#f3cc50"/>
      <path id="Path_195" data-name="Path 195" d="M40.646,23.941A15.65,15.65,0,0,1,17.057,37.422,15.648,15.648,0,0,0,29.5,8.952,15.648,15.648,0,0,1,40.646,23.941Zm0,0" fill="#f7c22c"/>
      <path id="Path_196" data-name="Path 196" d="M32.507,18.255a2.225,2.225,0,0,0-3.146,0l-6.994,6.994a.362.362,0,0,1-.511,0l-1.219-1.22a2.224,2.224,0,0,0-3.146,3.146l3.147,3.147a2.086,2.086,0,0,0,2.95,0L32.508,21.4a2.224,2.224,0,0,0,0-3.145Zm0,0" fill="#ea4444"/>
      <path id="Path_197" data-name="Path 197" d="M32.508,21.4,23.59,30.321a2.086,2.086,0,0,1-2.95,0l-1.2-1.2a2.087,2.087,0,0,0,2.666-.238l8.918-8.921a2.225,2.225,0,0,0,.539-2.27,2.216,2.216,0,0,1,.943.561h0a2.224,2.224,0,0,1,0,3.145Zm0,0" fill="#d93131"/>
    </g>
  </g>
</svg>
